<?xml version="1.0" encoding="UTF-8" standalone="no"?>
<!-- Created with Inkscape (http://www.inkscape.org/) -->

<svg
   width="400"
   height="400"
   viewBox="0 0 105.83333 105.83333"
   version="1.1"
   id="svg5"
   inkscape:version="1.3.1 (91b66b0783, 2023-11-16)"
   sodipodi:docname="nahled.svg"
   inkscape:export-filename="nahled.png"
   inkscape:export-xdpi="96.099998"
   inkscape:export-ydpi="96.099998"
   xmlns:inkscape="http://www.inkscape.org/namespaces/inkscape"
   xmlns:sodipodi="http://sodipodi.sourceforge.net/DTD/sodipodi-0.dtd"
   xmlns="http://www.w3.org/2000/svg"
   xmlns:svg="http://www.w3.org/2000/svg">
  <sodipodi:namedview
     id="namedview7"
     pagecolor="#ffffff"
     bordercolor="#000000"
     borderopacity="0.25"
     inkscape:showpageshadow="2"
     inkscape:pageopacity="0.0"
     inkscape:pagecheckerboard="0"
     inkscape:deskcolor="#d1d1d1"
     inkscape:document-units="mm"
     showgrid="false"
     inkscape:zoom="1.2623761"
     inkscape:cx="57.431379"
     inkscape:cy="55.054908"
     inkscape:window-width="2880"
     inkscape:window-height="1514"
     inkscape:window-x="-11"
     inkscape:window-y="-11"
     inkscape:window-maximized="1"
     inkscape:current-layer="g2" />
  <defs
     id="defs2">
    <linearGradient
       id="linearGradient11">
      <stop
         offset="0"
         stop-color="#FFFFFF"
         id="stop802" />
      <stop
         offset="1"
         stop-color="#FFFFFF"
         stop-opacity="0"
         id="stop804" />
    </linearGradient>
    <pattern
       width="6"
       height="6"
       patternUnits="userSpaceOnUse"
       id="EMFhbasepattern"
       overflow="hidden" />
  </defs>
  <g
     inkscape:label="Vrstva 1"
     inkscape:groupmode="layer"
     id="layer1">
    <g
       id="layer1-6"
       transform="matrix(0.19773355,0,0,0.19773355,0.03972348,1.7567552)">
      <rect
         style="fill:#202020;stroke:none;stroke-width:107.046;stroke-linecap:round;stroke-linejoin:round;stroke-miterlimit:7.7;fill-opacity:1"
         id="rect857"
         width="535.23206"
         height="535.23206"
         x="-0.20089398"
         y="-8.8844566" />
      <g
         id="g1"
         fill="#ff0000"
         transform="matrix(16,0,0,16,11.415131,2.731568)"
         style="fill:#2cb9f1;fill-opacity:1">
        <path
           d="M 7,12 C 4.23858,12 2,9.76142 2,7 2,4.23858 4.23858,2 7,2 9.76142,2 12,4.23858 12,7 H 10 C 10,5.34315 8.65685,4 7,4 5.34315,4 4,5.34315 4,7 c 0,1.65685 1.34315,3 3,3 z"
           id="path1"
           style="fill:#2cb9f1;fill-opacity:1" />
        <path
           d="m 25,12 v -2 c 1.6569,0 3,-1.34315 3,-3 0,-1.65685 -1.3431,-3 -3,-3 -1.6569,0 -3,1.34315 -3,3 h -2 c 0,-2.76142 2.2386,-5 5,-5 2.7614,0 5,2.23858 5,5 0,2.76142 -2.2386,5 -5,5 z"
           id="path2"
           style="fill:#2cb9f1;fill-opacity:1" />
        <path
           d="M 7,30 C 4.23858,30 2,27.7614 2,25 2,22.2386 4.23858,20 7,20 v 2 c -1.65685,0 -3,1.3431 -3,3 0,1.6569 1.34315,3 3,3 1.65685,0 3,-1.3431 3,-3 h 2 c -0.003,2.7602 -2.23983,4.997 -5,5 z"
           id="path3"
           style="fill:#2cb9f1;fill-opacity:1" />
        <path
           d="m 25,30 c -2.7602,-0.003 -4.997,-2.2398 -5,-5 h 2 c 0,1.6569 1.3431,3 3,3 1.6569,0 3,-1.3431 3,-3 0,-1.6569 -1.3431,-3 -3,-3 v -2 c 2.7614,0 5,2.2386 5,5 0,2.7614 -2.2386,5 -5,5 z"
           id="path4"
           style="fill:#2cb9f1;fill-opacity:1" />
        <path
           d="M 20,18.5859 V 13.4141 L 25.707,7.707 C 26.6829,6.76448 25.2355,5.31714 24.293,6.293 l -4.4995,4.5 c -1.1586,-3.72336 -6.4284,-3.72336 -7.587,0 L 7.707,6.293 C 7.31664,5.90229 6.68336,5.90229 6.293,6.293 v 0 c -0.39071,0.39036 -0.39071,1.02364 0,1.414 L 12,13.4141 v 5.1718 L 6.293,24.293 c -0.39071,0.3904 -0.39071,1.0236 0,1.414 v 0 c 0.39036,0.3907 1.02364,0.3907 1.414,0 l 4.5,-4.5 c 1.1586,3.7234 6.4284,3.7234 7.587,0 l 4.4995,4.5 c 0.9425,0.9103 2.3243,-0.4715 1.414,-1.414 z M 18,20 c 0,2.6667 -4,2.6667 -4,0 v -8 c 0,-2.66667 4,-2.66667 4,0 z"
           id="path5"
           style="fill:#2cb9f1;fill-opacity:1" />
      </g>
      <g
         id="g2"
         stroke="#000000"
         fill="#ffffff"
         transform="matrix(9.79338,0,0,8.60483,297.86961,314.15614)"
         style="fill:#2cb9f1;fill-opacity:1">
        <path
           d="M 1.59412,13.392728 V 7.1946435 c 0,-3.4230976 2.68629,-6.1980605 6,-6.1980605 h 7.99998 c 3.3137,0 6,2.7749629 6,6.1980605 v 6.1980845 c 0,3.423087 -2.6863,6.198063 -6,6.198063 H 7.59412 c -3.31371,0 -6,-2.774976 -6,-6.198063 z"
           id="path1-0"
           stroke="#ff0000"
           stroke-width="1.52456"
           style="fill:#2cb9f1;fill-opacity:1;stroke:none" />
        <path
           d="m 12.5941,13.4966 v -2.8 m 2.8571,0 c 0.7143,0 2.1429,0 2.1429,-2.10002 0,-2.1 -1.4286,-2.1 -2.1429,-2.1 h -2.8571 v 4.20002 m 2.8571,0 c -1.1428,0 -2.3809,0 -2.8571,0 m 2.8571,0 2.1429,2.8"
           id="path2-1"
           stroke="#ff0000"
           stroke-width="1.5"
           stroke-linecap="round"
           stroke-linejoin="round"
           fill="none"
           style="fill:#2cb9f1;fill-opacity:1;stroke:#222222;stroke-opacity:1" />
        <path
           d="m 10.5941,13.4966 -1.07141,-2.5 m -4.92857,2.5 1.07143,-2.5 m 0,0 1.92857,-4.50002 1.92857,4.50002 m -3.85714,0 h 3.85714"
           id="path3-2"
           stroke="#ff0000"
           stroke-width="1.5"
           stroke-linecap="round"
           stroke-linejoin="round"
           fill="none"
           style="fill:#2cb9f1;fill-opacity:1;stroke:#222222;stroke-opacity:1" />
      </g>
    </g>
  </g>
</svg>
