<?xml version="1.0" encoding="UTF-8" standalone="no"?>
<!-- Created with Inkscape (http://www.inkscape.org/) -->

<svg
   width="1250"
   height="600"
   viewBox="0 0 330.72916 158.75"
   version="1.1"
   id="svg5"
   inkscape:version="1.2.2 (732a01da63, 2022-12-09)"
   sodipodi:docname="architektura.svg"
   xmlns:inkscape="http://www.inkscape.org/namespaces/inkscape"
   xmlns:sodipodi="http://sodipodi.sourceforge.net/DTD/sodipodi-0.dtd"
   xmlns="http://www.w3.org/2000/svg"
   xmlns:svg="http://www.w3.org/2000/svg">
  <sodipodi:namedview
     id="namedview7"
     pagecolor="#ffffff"
     bordercolor="#000000"
     borderopacity="0.25"
     inkscape:showpageshadow="2"
     inkscape:pageopacity="0.0"
     inkscape:pagecheckerboard="0"
     inkscape:deskcolor="#d1d1d1"
     inkscape:document-units="mm"
     showgrid="false"
     inkscape:zoom="0.914906"
     inkscape:cx="769.47796"
     inkscape:cy="207.67161"
     inkscape:window-width="2560"
     inkscape:window-height="1369"
     inkscape:window-x="-8"
     inkscape:window-y="-8"
     inkscape:window-maximized="1"
     inkscape:current-layer="g2750" />
  <defs
     id="defs2">
    <clipPath
       id="clip0">
      <rect
         x="176"
         y="522"
         width="117"
         height="117"
         id="rect132" />
    </clipPath>
    <clipPath
       id="clip1">
      <rect
         x="176"
         y="522"
         width="117"
         height="117"
         id="rect135" />
    </clipPath>
    <clipPath
       id="clip2">
      <rect
         x="176"
         y="522"
         width="117"
         height="117"
         id="rect138" />
    </clipPath>
    <clipPath
       id="clip0-9">
      <rect
         x="176"
         y="522"
         width="117"
         height="117"
         id="rect2529" />
    </clipPath>
    <clipPath
       id="clip1-3">
      <rect
         x="176"
         y="522"
         width="117"
         height="117"
         id="rect2532" />
    </clipPath>
    <clipPath
       id="clip2-7">
      <rect
         x="176"
         y="522"
         width="117"
         height="117"
         id="rect2535" />
    </clipPath>
  </defs>
  <g
     inkscape:label="Vrstva 1"
     inkscape:groupmode="layer"
     id="layer1">
    <g
       transform="matrix(0.26458333,0,0,0.26458333,-0.1363067,-25.811559)"
       id="g343">
      <g
         transform="translate(-0.58629062,-1.4751888)"
         id="g2750">
        <g
           id="g2566">
          <g
             id="g2564">
            <g
               id="g2562">
              <path
                 d="M 96.4194,35.4194 H 66.9032 v -3.9355 h 3.9355 V 27.5484 H 66.9032 V 5.90323 C 66.9032,2.64858 64.2546,0 61,0 57.7454,0 55.0968,2.64858 55.0968,5.90323 V 27.5484 h -3.9355 v 3.9355 h 3.9355 v 3.9355 H 25.5806 c -9.7659,0 -17.70963,7.9437 -17.70963,17.7096 v 59.032 c 0,5.425 4.41363,9.839 9.83873,9.839 h 19.213 c 3.4632,0 6.5782,-1.926 8.1288,-5.024 0.8776,-1.755 2.6426,-2.847 4.6064,-2.847 h 22.6822 c 1.9638,0 3.7308,1.092 4.6084,2.847 1.5526,3.098 4.6675,5.024 8.1288,5.024 H 104.29 c 5.425,0 9.839,-4.414 9.839,-9.839 V 53.129 c 0,-9.7659 -7.944,-17.7096 -17.7096,-17.7096 z M 59.0323,5.90323 c 0,-1.0862 0.8815,-1.96775 1.9677,-1.96775 1.0862,0 1.9677,0.88155 1.9677,1.96775 V 27.5484 h -3.9354 z m 0,25.58067 h 3.9354 v 3.9355 h -3.9354 z m -3.9355,7.8709 h 11.8064 v 5.9033 c 0,1.0862 -0.8815,1.9677 -1.9677,1.9677 h -1.9678 v -3.9355 h -3.9354 v 3.9355 h -1.9678 c -1.0862,0 -1.9677,-0.8815 -1.9677,-1.9677 z m 55.0972,72.8062 c 0,2.562 -1.651,4.727 -3.936,5.541 v -3.573 h -3.935 v 3.936 h -3.9359 v -3.936 h -3.9355 v 3.936 h -3.9355 v -3.936 h -3.9355 v 3.936 h -1.5033 c -1.9638,0 -3.7308,-1.093 -4.6085,-2.848 -1.5505,-3.097 -4.6655,-5.023 -8.1267,-5.023 H 49.6579 c -3.4632,0 -6.5781,1.926 -8.1287,5.023 -0.8776,1.755 -2.6427,2.848 -4.6065,2.848 h -1.5033 v -3.936 h -3.9355 v 3.936 h -3.9355 v -3.936 h -3.9355 v 3.936 h -3.9355 v -3.936 h -3.9355 v 3.573 c -2.2845,-0.814 -3.9354,-2.979 -3.9354,-5.541 V 53.129 c 0,-7.5935 6.1806,-13.7742 13.7741,-13.7742 h 25.5807 v 5.9033 c 0,3.2546 2.6486,5.9032 5.9032,5.9032 h 7.871 c 3.2546,0 5.9032,-2.6486 5.9032,-5.9032 v -5.9033 h 25.5807 c 7.5936,0 13.7746,6.1807 13.7746,13.7742 z"
                 transform="matrix(1.0082,0,0,1,168,370)"
                 id="path2540" />
              <path
                 d="m 37.3871,47.2258 c -11.9344,0 -21.6452,9.7108 -21.6452,21.6452 0,11.9343 9.7108,21.6451 21.6452,21.6451 11.9344,0 21.6452,-9.7108 21.6452,-21.6451 0,-11.9344 -9.7108,-21.6452 -21.6452,-21.6452 z m 0,39.3548 c -9.7659,0 -17.7097,-7.9437 -17.7097,-17.7096 0,-9.7659 7.9438,-17.7097 17.7097,-17.7097 9.7659,0 17.7097,7.9438 17.7097,17.7097 0,9.7659 -7.9438,17.7096 -17.7097,17.7096 z"
                 transform="matrix(1.0082,0,0,1,168,370)"
                 id="path2542" />
              <path
                 d="M 23.6129,74.7742 H 51.1613 V 62.9677 H 23.6129 Z m 19.6774,-7.871 h 3.9355 v 3.9355 h -3.9355 z m -7.8709,0 h 3.9354 v 3.9355 h -3.9354 z m -7.871,0 h 3.9355 v 3.9355 h -3.9355 z"
                 transform="matrix(1.0082,0,0,1,168,370)"
                 id="path2544" />
              <path
                 d="m 84.6129,47.2258 c -11.9343,0 -21.6452,9.7108 -21.6452,21.6452 0,11.9343 9.7109,21.6451 21.6452,21.6451 11.9344,0 21.6451,-9.7108 21.6451,-21.6451 0,-11.9344 -9.7107,-21.6452 -21.6451,-21.6452 z m 0,39.3548 c -9.7659,0 -17.7097,-7.9437 -17.7097,-17.7096 0,-9.7659 7.9438,-17.7097 17.7097,-17.7097 9.7659,0 17.7101,7.9438 17.7101,17.7097 0,9.7659 -7.9442,17.7096 -17.7101,17.7096 z"
                 transform="matrix(1.0082,0,0,1,168,370)"
                 id="path2546" />
              <path
                 d="M 78.7097,82.6452 H 90.5161 V 55.0968 H 78.7097 Z m 3.9355,-23.6129 h 3.9354 v 3.9354 h -3.9354 z m 0,7.8709 h 3.9354 v 3.9355 h -3.9354 z m 0,7.871 h 3.9354 v 3.9355 h -3.9354 z"
                 transform="matrix(1.0082,0,0,1,168,370)"
                 id="path2548" />
              <path
                 d="m 47.2258,98.3871 h 3.9355 v 3.9359 h -3.9355 z"
                 transform="matrix(1.0082,0,0,1,168,370)"
                 id="path2550" />
              <path
                 d="m 39.3548,98.3871 h 3.9355 v 3.9359 h -3.9355 z"
                 transform="matrix(1.0082,0,0,1,168,370)"
                 id="path2552" />
              <path
                 d="m 31.4839,98.3871 h 3.9355 v 3.9359 h -3.9355 z"
                 transform="matrix(1.0082,0,0,1,168,370)"
                 id="path2554" />
              <path
                 d="m 23.6129,98.3871 h 3.9355 v 3.9359 h -3.9355 z"
                 transform="matrix(1.0082,0,0,1,168,370)"
                 id="path2556" />
              <path
                 d="m 92.4839,94.4516 c -3.2547,0 -5.9033,2.6486 -5.9033,5.9034 0,3.254 2.6486,5.903 5.9033,5.903 3.2546,0 5.9032,-2.649 5.9032,-5.903 0,-3.2548 -2.6486,-5.9034 -5.9032,-5.9034 z m 0,7.8714 c -1.0862,0 -1.9678,-0.882 -1.9678,-1.968 0,-1.0863 0.8816,-1.9679 1.9678,-1.9679 1.0862,0 1.9677,0.8816 1.9677,1.9679 0,1.086 -0.8815,1.968 -1.9677,1.968 z"
                 transform="matrix(1.0082,0,0,1,168,370)"
                 id="path2558" />
              <path
                 d="m 76.7419,94.4516 c -3.2546,0 -5.9032,2.6486 -5.9032,5.9034 0,3.254 2.6486,5.903 5.9032,5.903 3.2547,0 5.9033,-2.649 5.9033,-5.903 0,-3.2548 -2.6486,-5.9034 -5.9033,-5.9034 z m 0,7.8714 c -1.0862,0 -1.9677,-0.882 -1.9677,-1.968 0,-1.0863 0.8815,-1.9679 1.9677,-1.9679 1.0862,0 1.9678,0.8816 1.9678,1.9679 0,1.086 -0.8816,1.968 -1.9678,1.968 z"
                 transform="matrix(1.0082,0,0,1,168,370)"
                 id="path2560" />
            </g>
          </g>
        </g>
        <g
           id="g2584">
          <g
             id="g2582">
            <g
               id="g2580">
              <path
                 d="m 612.281,543.326 c -1.555,2.722 -1.497,6.421 1.677,8.008 3.933,1.966 6.22,-1.513 8.095,-4.364 1.614,-2.455 3.429,-4.766 5.508,-6.846 4.567,-4.567 11.028,-8.749 19.439,-8.749 8.411,0 14.872,4.182 19.439,8.749 2.069,2.07 3.877,4.368 5.485,6.81 1.874,2.846 4.191,6.364 8.118,4.4 3.158,-1.579 3.225,-5.299 1.677,-8.008 -0.372,-0.651 -0.913,-1.553 -1.626,-2.622 -1.421,-2.13 -3.551,-4.972 -6.407,-7.828 -5.683,-5.683 -14.597,-11.751 -26.686,-11.751 -12.089,0 -21.003,6.068 -26.686,11.751 -2.856,2.856 -4.986,5.698 -6.406,7.828 -0.713,1.069 -1.255,1.971 -1.627,2.622 z"
                 fill="#0f0f0f"
                 id="path2568" />
              <path
                 d="m 639.191,550.404 c -1.022,1.005 -1.814,2.025 -2.348,2.793 -1.786,2.573 -4.21,5.024 -7.63,3.2 -2.833,-1.511 -3.265,-5.048 -1.724,-7.607 0.219,-0.364 0.532,-0.859 0.935,-1.44 0.802,-1.154 1.996,-2.697 3.579,-4.254 3.112,-3.06 8.175,-6.596 14.997,-6.596 6.821,0 11.884,3.536 14.996,6.596 1.583,1.557 2.777,3.1 3.579,4.254 0.403,0.581 0.716,1.076 0.935,1.44 1.545,2.564 1.099,6.101 -1.724,7.607 -3.42,1.824 -5.843,-0.627 -7.63,-3.2 -0.533,-0.768 -1.325,-1.788 -2.348,-2.793 -2.098,-2.065 -4.722,-3.654 -7.808,-3.654 -3.087,0 -5.711,1.589 -7.809,3.654 z"
                 fill="#0f0f0f"
                 id="path2570" />
              <path
                 d="m 590.625,608.25 c -2.83,0 -5.125,2.294 -5.125,5.125 0,2.831 2.295,5.125 5.125,5.125 2.83,0 5.125,-2.294 5.125,-5.125 0,-2.831 -2.295,-5.125 -5.125,-5.125 z"
                 fill="#0f0f0f"
                 id="path2572" />
              <path
                 d="m 600.875,613.375 c 0,-2.831 2.294,-5.125 5.125,-5.125 2.831,0 5.125,2.294 5.125,5.125 0,2.831 -2.294,5.125 -5.125,5.125 -2.831,0 -5.125,-2.294 -5.125,-5.125 z"
                 fill="#0f0f0f"
                 id="path2574" />
              <path
                 d="m 616.25,613.375 c 0,-2.831 2.294,-5.125 5.125,-5.125 2.831,0 5.125,2.294 5.125,5.125 0,2.831 -2.294,5.125 -5.125,5.125 -2.831,0 -5.125,-2.294 -5.125,-5.125 z"
                 fill="#0f0f0f"
                 id="path2576" />
              <path
                 d="m 641.875,557 c 0,-2.831 2.294,-5.125 5.125,-5.125 2.831,0 5.125,2.294 5.125,5.125 v 35.875 H 667.5 c 8.492,0 15.375,6.883 15.375,15.375 v 10.25 c 0,8.492 -6.883,15.375 -15.375,15.375 h -82 c -8.491,0 -15.375,-6.883 -15.375,-15.375 v -10.25 c 0,-8.492 6.884,-15.375 15.375,-15.375 h 56.375 z m 25.625,46.125 c 2.831,0 5.125,2.294 5.125,5.125 v 10.25 c 0,2.831 -2.294,5.125 -5.125,5.125 h -82 c -2.83,0 -5.125,-2.294 -5.125,-5.125 v -10.25 c 0,-2.831 2.295,-5.125 5.125,-5.125 z"
                 fill="#0f0f0f"
                 fill-rule="evenodd"
                 id="path2578" />
            </g>
          </g>
        </g>
        <g
           id="g2608">
          <g
             id="g2606">
            <g
               id="g2604">
              <path
                 d="m 603.603,350.582 c -9.377,0 -16.978,-7.602 -16.978,-16.979 0,-9.377 7.601,-16.978 16.978,-16.978 9.377,0 16.979,7.601 16.979,16.978"
                 stroke="#020202"
                 stroke-width="9.70917"
                 stroke-miterlimit="10"
                 fill="none"
                 id="path2586" />
              <path
                 d="m 620.582,406.397 c 0,9.376 -7.602,16.978 -16.979,16.978 -9.377,0 -16.978,-7.602 -16.978,-16.978 0,-9.377 7.601,-16.979 16.978,-16.979"
                 stroke="#020202"
                 stroke-width="9.70917"
                 stroke-miterlimit="10"
                 fill="none"
                 id="path2588" />
              <path
                 d="m 659.418,333.603 c 0,-9.377 7.602,-16.978 16.979,-16.978 9.376,0 16.978,7.601 16.978,16.978 0,9.377 -7.602,16.979 -16.978,16.979"
                 stroke="#020202"
                 stroke-width="9.70917"
                 stroke-miterlimit="10"
                 fill="none"
                 id="path2590" />
              <path
                 d="m 676.397,389.418 c 9.376,0 16.978,7.602 16.978,16.979 0,9.376 -7.602,16.978 -16.978,16.978 -9.377,0 -16.979,-7.602 -16.979,-16.978"
                 stroke="#020202"
                 stroke-width="9.70917"
                 stroke-miterlimit="10"
                 fill="none"
                 id="path2592" />
              <path
                 d="M 678.837,408.837 654.538,384.538"
                 stroke="#020202"
                 stroke-width="9.70917"
                 stroke-miterlimit="10"
                 fill="none"
                 id="path2594" />
              <path
                 d="M 625.462,355.462 601.163,331.163"
                 stroke="#020202"
                 stroke-width="9.70917"
                 stroke-miterlimit="10"
                 fill="none"
                 id="path2596" />
              <path
                 d="m 625.462,384.538 -24.299,24.299"
                 stroke="#020202"
                 stroke-width="9.70917"
                 stroke-miterlimit="10"
                 fill="none"
                 id="path2598" />
              <path
                 d="m 678.837,331.163 -24.299,24.299"
                 stroke="#020202"
                 stroke-width="9.70917"
                 stroke-miterlimit="10"
                 fill="none"
                 id="path2600" />
              <path
                 d="m 654.538,355.462 v 29.076 c 0,8.029 -6.509,14.539 -14.538,14.539 -8.029,0 -14.538,-6.51 -14.538,-14.539 v -29.076 c 0,-8.03 6.509,-14.539 14.538,-14.539 8.029,0 14.538,6.509 14.538,14.539 z"
                 stroke="#020202"
                 stroke-width="9.70917"
                 stroke-miterlimit="10"
                 fill="none"
                 id="path2602" />
            </g>
          </g>
        </g>
        <path
           d="m 75.9783,310 c 0.5062,0 1.0126,-0.193 1.3987,-0.579 l 9.0436,-9.044 c 0.7726,-0.773 0.7726,-2.025 0,-2.798 -0.7726,-0.772 -2.0253,-0.772 -2.7976,0 l -9.0436,9.044 c -0.7726,0.773 -0.7726,2.025 0,2.798 0.3865,0.386 0.8927,0.579 1.3989,0.579 z"
           fill-rule="evenodd"
           id="path2610" />
        <path
           d="m 49.9567,337 c 0.5006,0 1.0016,-0.199 1.3835,-0.597 l 20.0867,-20.924 c 0.7643,-0.795 0.7643,-2.086 0,-2.882 -0.7641,-0.796 -2.003,-0.796 -2.7671,0 l -20.0867,20.924 c -0.7642,0.795 -0.7642,2.086 0,2.882 0.382,0.398 0.8826,0.597 1.3836,0.597 z"
           fill-rule="evenodd"
           id="path2612" />
        <path
           d="m 90.965,327 c 0.5028,0 1.0058,-0.198 1.3893,-0.595 L 117.424,300.47 c 0.768,-0.794 0.768,-2.081 0,-2.875 -0.767,-0.793 -2.011,-0.793 -2.778,0 L 89.5755,323.53 c -0.7674,0.794 -0.7674,2.081 0,2.875 0.3839,0.396 0.8867,0.595 1.3895,0.595 z"
           fill-rule="evenodd"
           id="path2614" />
        <path
           d="m 142.053,269.063 h -21.415 v -4.691 c 0,-4.065 -3.202,-7.372 -7.138,-7.372 H 52.5001 c -3.9363,0 -7.1385,3.307 -7.1385,7.372 v 4.691 H 23.9468 c -1.0751,0 -1.9468,0.9 -1.9468,2.011 v 55.396 c 0,1.111 0.8717,2.011 1.9468,2.011 h 5.9598 c 0.9589,8.382 7.801,15.373 16.0776,16.011 l 19.2119,1.48 c 3.9745,0.308 8.5184,-1.972 10.3497,-5.187 l 3.2403,-5.69 c 0.985,-1.729 2.521,-2.721 4.2139,-2.721 1.6929,0 3.2288,0.992 4.2139,2.721 l 3.2403,5.69 c 1.721,3.021 5.8384,5.215 9.6248,5.215 0.243,0 0.486,-0.009 0.725,-0.028 l 19.212,-1.48 c 8.277,-0.638 15.119,-7.629 16.077,-16.011 h 5.96 c 1.075,0 1.947,-0.9 1.947,-2.011 v -55.396 c 0,-1.111 -0.872,-2.011 -1.947,-2.011 z m -92.7977,-4.691 c 0,-1.848 1.4554,-3.351 3.2448,-3.351 H 113.5 c 1.789,0 3.245,1.503 3.245,3.351 v 13.404 c 0,1.847 -1.456,3.35 -3.245,3.35 H 52.5001 c -1.7894,0 -3.2448,-1.503 -3.2448,-3.35 z m 90.8507,60.088 h -3.893 v -33.281 c 0,-1.11 -0.872,-2.01 -1.947,-2.01 H 47.3085 c -1.0752,0 -1.9469,0.9 -1.9469,2.01 0,1.111 0.8717,2.011 1.9469,2.011 h 85.0105 v 33.28 c 0,7.191 -5.649,13.477 -12.593,14.012 l -19.212,1.481 c -2.486,0.193 -5.6187,-1.312 -6.7038,-3.217 L 90.57,333.057 c -1.6777,-2.946 -4.5076,-4.704 -7.57,-4.704 -3.0624,0 -5.8923,1.758 -7.57,4.704 l -3.2403,5.689 c -1.085,1.905 -4.217,3.408 -6.704,3.217 l -19.2118,-1.481 c -6.944,-0.535 -12.5931,-6.82 -12.5931,-14.011 V 293.19 h 5.8404 c 1.0753,0 1.9469,-0.9 1.9469,-2.011 0,-1.11 -0.8716,-2.01 -1.9469,-2.01 h -7.7871 c -1.0753,0 -1.9469,0.9 -1.9469,2.01 v 33.281 h -3.8935 v -51.376 h 19.4679 v 4.692 c 0,4.065 3.2022,7.372 7.1385,7.372 H 113.5 c 3.936,0 7.138,-3.307 7.138,-7.372 v -4.692 h 19.468 z"
           fill-rule="evenodd"
           id="path2616" />
        <path
           d="m 64,277 c 3.3085,0 6,-2.691 6,-6 0,-3.309 -2.6915,-6 -6,-6 -3.3085,0 -6,2.691 -6,6 0,3.309 2.6915,6 6,6 z m 0,-8 c 1.1029,0 2,0.897 2,2 0,1.103 -0.8971,2 -2,2 -1.1029,0 -2,-0.897 -2,-2 0,-1.103 0.8971,-2 2,-2 z"
           fill-rule="evenodd"
           id="path2618" />
        <path
           d="m 85,277 c 3.3085,0 6,-2.691 6,-6 0,-3.309 -2.6915,-6 -6,-6 -3.3085,0 -6,2.691 -6,6 0,3.309 2.6915,6 6,6 z m 0,-8 c 1.1029,0 2,0.897 2,2 0,1.103 -0.8971,2 -2,2 -1.1029,0 -2,-0.897 -2,-2 0,-1.103 0.8971,-2 2,-2 z"
           fill-rule="evenodd"
           id="path2620" />
        <path
           d="m 106,271 c 0,1.105 -0.895,2 -2,2 -1.105,0 -2,-0.895 -2,-2 0,-1.104 0.895,-2 2,-2 1.105,0 2,0.896 2,2 z"
           fill-rule="evenodd"
           id="path2622" />
        <path
           d="m 308,580 h 249.917 v 6 H 308 Z m 3,12 -18,-9 18,-9 z m 243.917,-18 18,9 -18,9 z"
           fill="#4472c4"
           id="path2624" />
        <g
           clip-path="url(#clip0-9)"
           id="g2632">
          <g
             clip-path="url(#clip1-3)"
             id="g2630">
            <g
               clip-path="url(#clip2-7)"
               id="g2628">
              <path
                 d="m 293,607.693 v -54.398 c -0.004,-2.9 -2.352,-5.247 -5.251,-5.252 H 181.247 c -2.895,0.009 -5.241,2.356 -5.247,5.252 v 54.402 c 0.008,2.895 2.356,5.241 5.251,5.245 h 106.494 c 2.899,0.002 5.253,-2.348 5.255,-5.247 0,0 0,-0.002 0,-0.002 z M 188.739,586.282 c -3.195,0.009 -5.791,-2.574 -5.799,-5.769 -0.009,-3.195 2.575,-5.791 5.769,-5.799 3.195,-0.009 5.791,2.574 5.8,5.769 0,0.002 0,0.006 0,0.009 -0.013,3.184 -2.586,5.765 -5.77,5.79 z m 10.598,20.818 v -53.198 h 82.479 v 53.185 z"
                 id="path2626" />
            </g>
          </g>
        </g>
        <g
           id="g2642">
          <g
             id="g2640">
            <g
               id="g2638">
              <path
                 d="m 138.833,27.2708 c 0,10.9537 -8.879,19.8334 -19.833,19.8334 -10.954,0 -19.8333,-8.8797 -19.8333,-19.8334 0,-10.9536 8.8793,-19.8333 19.8333,-19.8333 10.954,0 19.833,8.8797 19.833,19.8333 z"
                 transform="matrix(1,0,0,1.08824,-36,370)"
                 id="path2634" />
              <path
                 d="M 173.046,129.413 159.162,70.4083 c -0.495,-1.9833 -1.487,-3.9666 -2.974,-5.4541 -5.95,-4.9584 -12.892,-8.4292 -20.825,-10.9084 -5.455,-0.9916 -10.909,-1.9833 -16.363,-1.9833 -5.454,0 -10.908,0.9917 -16.362,2.4792 -7.9338,1.9833 -14.8755,5.95 -20.8255,10.9083 -1.4875,1.4875 -2.4792,3.4708 -2.975,5.4542 L 64.9542,129.908 c 0,0.496 -0.4959,1.488 -0.4959,2.48 0,5.454 4.4625,9.916 9.9167,9.916 4.4625,0 8.4292,-3.471 9.4208,-7.437 L 94.2083,91.7292 V 230.562 h 19.8337 v -89.25 h 9.916 v 89.25 h 19.834 V 91.2333 l 10.412,43.1377 c 0.992,3.967 4.958,7.437 9.421,7.437 5.454,0 9.917,-4.462 9.917,-9.916 0,-0.992 -0.496,-1.984 -0.496,-2.479 z"
                 transform="matrix(1,0,0,1.08824,-36,370)"
                 id="path2636" />
            </g>
          </g>
        </g>
        <path
           d="m 703,578 h 18 v 6 h -18 z m 24,0 h 18 v 6 h -18 z m 24,0 h 18 v 6 h -18 z m 24,0 h 18 v 6 h -18 z m 24,0 h 18 v 6 h -18 z m 24,0 h 18 v 6 h -18 z m 24,0 h 18 v 6 h -18 z m 24,0 h 18 v 6 h -18 z m 24,0 h 18 v 6 h -18 z m 24,0 h 18 v 6 h -18 z m 24,0 h 9.917 v 6 H 943 Z m -237,12 -18,-9 18,-9 z m 243.917,-18 18,9 -18,9 z"
           fill="#4472c4"
           id="path2644" />
        <path
           d="M 0.0268918,-2.99988 273.322,-0.549984 273.268,5.44978 -0.0268918,2.99988 Z M 270.376,-6.57663 l 17.919,9.16099 -18.08,8.83824 z"
           fill="#4472c4"
           transform="matrix(-1,0,0,1,442.295,296)"
           id="path2646" />
        <path
           d="m 441,292 0.463,238.5"
           stroke="#4472c4"
           stroke-width="6"
           stroke-miterlimit="8"
           fill="none"
           fill-rule="evenodd"
           id="path2648" />
        <path
           d="M 442,526 H 566.156"
           stroke="#4472c4"
           stroke-width="6"
           stroke-miterlimit="8"
           fill="none"
           fill-rule="evenodd"
           id="path2650" />
        <g
           id="g2660">
          <g
             id="g2658">
            <g
               id="g2656">
              <path
                 d="m 979.921,604.107 c 1.539,-0.105 3.504,-0.107 6.325,-0.107 h 83.504 c 2.82,0 4.79,0.002 6.33,0.107 1.51,0.104 2.39,0.298 3.06,0.578 2.2,0.914 3.94,2.666 4.85,4.871 0.27,0.676 0.47,1.561 0.57,3.082 0.1,1.548 0.11,3.525 0.11,6.362 0,2.836 -0.01,4.814 -0.11,6.362 -0.1,1.521 -0.3,2.406 -0.57,3.082 -0.91,2.205 -2.65,3.957 -4.85,4.871 -0.67,0.28 -1.55,0.474 -3.06,0.578 -1.54,0.105 -3.51,0.107 -6.33,0.107 h -83.504 c -2.821,0 -4.786,-0.002 -6.325,-0.107 -1.512,-0.104 -2.392,-0.298 -3.064,-0.578 -2.193,-0.914 -3.935,-2.666 -4.843,-4.871 -0.278,-0.676 -0.471,-1.561 -0.574,-3.082 -0.105,-1.548 -0.107,-3.526 -0.107,-6.362 0,-2.837 0.002,-4.814 0.107,-6.362 0.103,-1.521 0.296,-2.406 0.574,-3.082 0.908,-2.205 2.65,-3.957 4.843,-4.871 0.672,-0.28 1.552,-0.474 3.064,-0.578 z M 986.246,625 c 3.294,0 5.965,-2.686 5.965,-6 0,-3.314 -2.671,-6 -5.965,-6 -3.295,0 -5.965,2.686 -5.965,6 0,3.314 2.67,6 5.965,6 z"
                 fill-rule="evenodd"
                 id="path2652" />
              <path
                 d="m 986.246,562 c -2.821,0 -4.786,-0.002 -6.325,-0.107 -1.512,-0.104 -2.392,-0.298 -3.064,-0.578 -2.193,-0.914 -3.935,-2.666 -4.843,-4.871 -0.278,-0.676 -0.471,-1.562 -0.574,-3.082 -0.105,-1.548 -0.107,-3.525 -0.107,-6.362 0,-2.837 0.002,-4.814 0.107,-6.362 0.103,-1.52 0.296,-2.406 0.574,-3.082 0.908,-2.205 2.65,-3.957 4.843,-4.871 0.672,-0.28 1.552,-0.474 3.064,-0.578 1.539,-0.105 3.504,-0.107 6.325,-0.107 h 83.504 c 2.82,0 4.79,0.002 6.33,0.107 1.51,0.104 2.39,0.298 3.06,0.578 2.2,0.914 3.94,2.666 4.85,4.871 0.27,0.676 0.47,1.562 0.57,3.082 0.1,1.548 0.11,3.525 0.11,6.362 0,2.837 -0.01,4.814 -0.11,6.362 -0.1,1.52 -0.3,2.406 -0.57,3.082 -0.91,2.205 -2.65,3.957 -4.85,4.871 -0.67,0.28 -1.55,0.474 -3.06,0.578 -1.54,0.105 -3.51,0.107 -6.33,0.107 z m 0,6 c -2.821,0 -4.786,0.002 -6.325,0.107 -1.512,0.104 -2.392,0.298 -3.064,0.578 -2.193,0.914 -3.935,2.666 -4.843,4.871 -0.278,0.676 -0.471,1.562 -0.574,3.083 -0.105,1.547 -0.107,3.524 -0.107,6.361 0,2.837 0.002,4.814 0.107,6.361 0.103,1.521 0.296,2.407 0.574,3.083 0.908,2.206 2.65,3.958 4.843,4.871 0.672,0.28 1.552,0.474 3.064,0.578 1.539,0.106 3.504,0.107 6.325,0.107 h 83.504 c 2.82,0 4.79,-10e-4 6.33,-0.107 1.51,-0.104 2.39,-0.298 3.06,-0.578 2.2,-0.913 3.94,-2.665 4.85,-4.871 0.27,-0.676 0.47,-1.562 0.57,-3.083 0.1,-1.547 0.11,-3.524 0.11,-6.361 0,-2.837 -0.01,-4.814 -0.11,-6.361 -0.1,-1.521 -0.3,-2.407 -0.57,-3.083 -0.91,-2.205 -2.65,-3.957 -4.85,-4.871 -0.67,-0.28 -1.55,-0.474 -3.06,-0.578 -1.54,-0.105 -3.51,-0.107 -6.33,-0.107 z m 5.965,15 c 0,3.314 -2.671,6 -5.965,6 -3.295,0 -5.965,-2.686 -5.965,-6 0,-3.314 2.67,-6 5.965,-6 3.294,0 5.965,2.686 5.965,6 z m -5.965,-30 c 3.294,0 5.965,-2.686 5.965,-6 0,-3.314 -2.671,-6 -5.965,-6 -3.295,0 -5.965,2.686 -5.965,6 0,3.314 2.67,6 5.965,6 z"
                 fill-rule="evenodd"
                 id="path2654" />
            </g>
          </g>
        </g>
        <text
           font-family="Calibri, Calibri_MSFontService, sans-serif"
           font-weight="400"
           font-size="24px"
           transform="translate(90.075,652)"
           id="text2662">Telefon s upravenou aplikací</text>
        <text
           font-family="Calibri, Calibri_MSFontService, sans-serif"
           font-weight="400"
           font-size="24px"
           transform="translate(187.971,513)"
           id="text2664">Vysílačka</text>
        <text
           font-family="Calibri, Calibri_MSFontService, sans-serif"
           font-weight="400"
           font-size="24px"
           transform="translate(5.78845,367)"
           id="text2666">Brýle HoloLens 2</text>
        <text
           font-family="Calibri, Calibri_MSFontService, sans-serif"
           font-weight="400"
           font-size="24px"
           transform="translate(552.554,656)"
           id="text2668">Přístupový bod</text>
        <text
           font-family="Calibri, Calibri_MSFontService, sans-serif"
           font-weight="400"
           font-size="24px"
           transform="translate(615.579,463)"
           id="text2670">Dron</text>
        <text
           font-family="Calibri, Calibri_MSFontService, sans-serif"
           font-weight="400"
           font-size="24px"
           transform="translate(926.962,484)"
           id="text2672">Server pro sběr a distribuci</text>
        <text
           font-family="Calibri, Calibri_MSFontService, sans-serif"
           font-weight="400"
           font-size="24px"
           transform="translate(926.962,513)"
           id="text2674">video streamů</text>
        <g
           id="g2684">
          <g
             id="g2682">
            <g
               id="g2680">
              <path
                 d="m 987.921,429.107 c 1.539,-0.105 3.504,-0.107 6.325,-0.107 h 83.504 c 2.82,0 4.79,0.002 6.33,0.107 1.51,0.104 2.39,0.298 3.06,0.578 2.2,0.914 3.94,2.666 4.85,4.871 0.27,0.676 0.47,1.561 0.57,3.082 0.1,1.548 0.11,3.525 0.11,6.362 0,2.836 -0.01,4.814 -0.11,6.362 -0.1,1.521 -0.3,2.406 -0.57,3.082 -0.91,2.205 -2.65,3.957 -4.85,4.871 -0.67,0.28 -1.55,0.474 -3.06,0.578 -1.54,0.105 -3.51,0.107 -6.33,0.107 h -83.504 c -2.821,0 -4.786,-0.002 -6.325,-0.107 -1.512,-0.104 -2.392,-0.298 -3.064,-0.578 -2.193,-0.914 -3.935,-2.666 -4.843,-4.871 -0.278,-0.676 -0.471,-1.561 -0.574,-3.082 -0.105,-1.548 -0.107,-3.526 -0.107,-6.362 0,-2.837 0.002,-4.814 0.107,-6.362 0.103,-1.521 0.296,-2.406 0.574,-3.082 0.908,-2.205 2.65,-3.957 4.843,-4.871 0.672,-0.28 1.552,-0.474 3.064,-0.578 z M 994.246,450 c 3.294,0 5.964,-2.686 5.964,-6 0,-3.314 -2.67,-6 -5.964,-6 -3.295,0 -5.965,2.686 -5.965,6 0,3.314 2.67,6 5.965,6 z"
                 fill-rule="evenodd"
                 id="path2676" />
              <path
                 d="m 994.246,387 c -2.821,0 -4.786,-0.002 -6.325,-0.107 -1.512,-0.104 -2.392,-0.298 -3.064,-0.578 -2.193,-0.914 -3.935,-2.666 -4.843,-4.871 -0.278,-0.676 -0.471,-1.562 -0.574,-3.082 -0.105,-1.548 -0.107,-3.525 -0.107,-6.362 0,-2.837 0.002,-4.814 0.107,-6.362 0.103,-1.52 0.296,-2.406 0.574,-3.082 0.908,-2.205 2.65,-3.957 4.843,-4.871 0.672,-0.28 1.552,-0.474 3.064,-0.578 1.539,-0.105 3.504,-0.107 6.325,-0.107 h 83.504 c 2.82,0 4.79,0.002 6.33,0.107 1.51,0.104 2.39,0.298 3.06,0.578 2.2,0.914 3.94,2.666 4.85,4.871 0.27,0.676 0.47,1.562 0.57,3.082 0.1,1.548 0.11,3.525 0.11,6.362 0,2.837 -0.01,4.814 -0.11,6.362 -0.1,1.52 -0.3,2.406 -0.57,3.082 -0.91,2.205 -2.65,3.957 -4.85,4.871 -0.67,0.28 -1.55,0.474 -3.06,0.578 -1.54,0.105 -3.51,0.107 -6.33,0.107 z m 0,6 c -2.821,0 -4.786,0.002 -6.325,0.107 -1.512,0.104 -2.392,0.298 -3.064,0.578 -2.193,0.914 -3.935,2.666 -4.843,4.871 -0.278,0.676 -0.471,1.562 -0.574,3.083 -0.105,1.547 -0.107,3.524 -0.107,6.361 0,2.837 0.002,4.814 0.107,6.361 0.103,1.521 0.296,2.407 0.574,3.083 0.908,2.206 2.65,3.958 4.843,4.871 0.672,0.28 1.552,0.474 3.064,0.578 1.539,0.106 3.504,0.107 6.325,0.107 h 83.504 c 2.82,0 4.79,-10e-4 6.33,-0.107 1.51,-0.104 2.39,-0.298 3.06,-0.578 2.2,-0.913 3.94,-2.665 4.85,-4.871 0.27,-0.676 0.47,-1.562 0.57,-3.083 0.1,-1.547 0.11,-3.524 0.11,-6.361 0,-2.837 -0.01,-4.814 -0.11,-6.361 -0.1,-1.521 -0.3,-2.407 -0.57,-3.083 -0.91,-2.205 -2.65,-3.957 -4.85,-4.871 -0.67,-0.28 -1.55,-0.474 -3.06,-0.578 -1.54,-0.105 -3.51,-0.107 -6.33,-0.107 z m 5.964,15 c 0,3.314 -2.67,6 -5.964,6 -3.295,0 -5.965,-2.686 -5.965,-6 0,-3.314 2.67,-6 5.965,-6 3.294,0 5.964,2.686 5.964,6 z m -5.964,-30 c 3.294,0 5.964,-2.686 5.964,-6 0,-3.314 -2.67,-6 -5.964,-6 -3.295,0 -5.965,2.686 -5.965,6 0,3.314 2.67,6 5.965,6 z"
                 fill-rule="evenodd"
                 id="path2678" />
            </g>
          </g>
        </g>
        <text
           font-family="Calibri, Calibri_MSFontService, sans-serif"
           font-weight="400"
           font-size="24px"
           transform="translate(926.962,655)"
           id="text2686">Server pro sběr a distribuci</text>
        <text
           font-family="Calibri, Calibri_MSFontService, sans-serif"
           font-weight="400"
           font-size="24px"
           transform="translate(926.962,684)"
           id="text2688">telemetrických dat</text>
        <path
           d="M 1.50868e-6,-3 18,-2.99999 v 6 L -1.50868e-6,3 Z M 24,-2.99999 l 18,1e-5 v 6 l -18,-1e-5 z m 24,1e-5 18,1e-5 v 6 l -18,-1e-5 z m 24,2e-5 18,1e-5 v 6 l -18,-1e-5 z m 24,1e-5 18,1e-5 v 6 l -18,-1e-5 z m 24,1e-5 18,1e-5 v 6 l -18,-1e-5 z m 24,1e-5 18,1e-5 v 6 l -18,-1e-5 z m 24,1e-5 18,1e-5 v 6 l -18,-1e-5 z m 24,2e-5 h 1.766 v 6 H 192 Z m -1.234,-6 18,9.000004987 -18,8.999995013 z"
           fill="#4472c4"
           transform="matrix(-1,0,0,1,896.766,522)"
           id="path2690" />
        <path
           d="m 894,410 h 18 v 6 h -18 z m 24,0 h 18 v 6 h -18 z m 24,0 h 10.77 v 6 H 942 Z m 7.77,-6 18,9 -18,9 z"
           fill="#4472c4"
           id="path2692" />
        <path
           d="M 0,0 1.04987e-4,111.368"
           stroke="#4472c4"
           stroke-width="6"
           stroke-linecap="square"
           stroke-miterlimit="8"
           stroke-dasharray="18, 6"
           fill="none"
           fill-rule="evenodd"
           transform="matrix(1,0,0,-1,894,522.368)"
           id="path2694"
           style="stroke-dasharray:12;stroke-dashoffset:0" />
        <path
           d="M 149,443 V 583.18"
           stroke="#70ad47"
           stroke-width="6"
           stroke-miterlimit="8"
           fill="none"
           fill-rule="evenodd"
           id="path2696" />
        <path
           d="m 149,578 h 12.543 v 6 H 149 Z m 9.543,-6 18,9 -18,9 z"
           fill="#70ad47"
           id="path2698" />
        <path
           d="m 149,443 h 12.753 v 6 H 149 Z m 9.753,-6 18,9 -18,9 z"
           fill="#70ad47"
           id="path2700" />
        <path
           d="m 722.5,145.501 c 0,-19.883 16.118,-36.001 36.001,-36.001 H 1210.5 c 19.88,0 36,16.118 36,36.001 v 143.998 c 0,19.883 -16.12,36.001 -36,36.001 H 758.501 c -19.883,0 -36.001,-16.118 -36.001,-36.001 z"
           stroke="#172c51"
           stroke-width="3"
           stroke-miterlimit="8"
           fill="none"
           fill-rule="evenodd"
           id="path2702" />
        <text
           font-family="Calibri, Calibri_MSFontService, sans-serif"
           font-weight="700"
           font-size="24px"
           transform="translate(732.077,142)"
           id="text2704">Legenda</text>
        <text
           font-family="Calibri, Calibri_MSFontService, sans-serif"
           font-weight="700"
           font-size="24px"
           transform="translate(820.317,142)"
           id="text2706">–</text>
        <text
           font-family="Calibri, Calibri_MSFontService, sans-serif"
           font-weight="700"
           font-size="24px"
           transform="translate(837.817,142)"
           id="text2708">typ komunikace</text>
        <path
           d="M 0,0 58.9342,1.04987e-4"
           stroke="#4472c4"
           stroke-width="6"
           stroke-miterlimit="8"
           fill="none"
           fill-rule="evenodd"
           transform="matrix(-1,0,0,1,794.934,170)"
           id="path2710" />
        <text
           font-family="Calibri, Calibri_MSFontService, sans-serif"
           font-weight="400"
           font-size="24px"
           transform="translate(815.807,177)"
           id="text2712">WI</text>
        <text
           font-family="Calibri, Calibri_MSFontService, sans-serif"
           font-weight="400"
           font-size="24px"
           transform="translate(843.141,177)"
           id="text2714">-</text>
        <text
           font-family="Calibri, Calibri_MSFontService, sans-serif"
           font-weight="400"
           font-size="24px"
           transform="translate(850.474,177)"
           id="text2716">FI přenos</text>
        <text
           font-family="Calibri, Calibri_MSFontService, sans-serif"
           font-weight="400"
           font-size="24px"
           transform="translate(945.827,177)"
           id="text2718">(data + video)</text>
        <path
           d="M 0,0 60.342,0.319685"
           stroke="#70ad47"
           stroke-width="6"
           stroke-miterlimit="8"
           fill="none"
           fill-rule="evenodd"
           transform="matrix(1,0,0,-1,734,202.32)"
           id="path2720" />
        <text
           font-family="Calibri, Calibri_MSFontService, sans-serif"
           font-weight="400"
           font-size="24px"
           transform="translate(816.22,209)"
           id="text2722">USB přenos</text>
        <text
           font-family="Calibri, Calibri_MSFontService, sans-serif"
           font-weight="400"
           font-size="24px"
           transform="translate(933.907,209)"
           id="text2724">(data + video)</text>
        <path
           d="m 737,296 h 60.342"
           stroke="#4472c4"
           stroke-width="6"
           stroke-linecap="square"
           stroke-miterlimit="8"
           stroke-dasharray="18, 6"
           fill="none"
           fill-rule="evenodd"
           id="path2726"
           style="stroke-dasharray:12;stroke-dashoffset:0" />
        <text
           font-family="Calibri, Calibri_MSFontService, sans-serif"
           font-weight="400"
           font-size="24px"
           transform="translate(815.807,305)"
           id="text2728">Přenos v rámci jednoho zařízení</text>
        <path
           d="m 736,234 h 60.342"
           stroke="#ed7d31"
           stroke-width="6"
           stroke-miterlimit="8"
           fill="none"
           fill-rule="evenodd"
           id="path2730" />
        <text
           font-family="Calibri, Calibri_MSFontService, sans-serif"
           font-weight="400"
           font-size="24px"
           transform="translate(816.22,239)"
           id="text2732">Ovládací instrukce</text>
        <text
           font-family="Calibri, Calibri_MSFontService, sans-serif"
           font-weight="400"
           font-size="24px"
           transform="translate(999.394,239)"
           id="text2734">–</text>
        <text
           font-family="Calibri, Calibri_MSFontService, sans-serif"
           font-weight="400"
           font-size="24px"
           transform="translate(1016.89,239)"
           id="text2736">DJI protokol 2.4 GHz</text>
        <path
           d="m 250,376 h 313.743 v 6 H 250 Z m 310.743,-6 18,9 -18,9 z"
           fill="#ed7d31"
           id="path2738" />
        <path
           d="M 9.756e-7,-3 18,-2.99999 v 6 L -9.756e-7,3 Z M 24,-2.99999 h 18 v 6 H 24 Z m 24,1e-5 h 18 v 6 H 48 Z m 24,0 18,1e-5 v 6 l -18,-1e-5 z m 24,1e-5 18,10e-6 v 6 l -18,-10e-6 z m 24,10e-6 18,1e-5 v 5.99999 h -18 z m 24,1e-5 h 18 v 6 h -18 z m 24,0 18,1e-5 v 6 l -18,-1e-5 z m 24,1e-5 18,1e-5 v 6 l -18,-1e-5 z m 24,1e-5 18,1e-5 v 6 l -18,-1e-5 z m 24,1e-5 h 18 v 6 h -18 z m 24,1e-5 h 18 v 6 h -18 z m 24,0 18,1e-5 v 6 l -18,-1e-5 z m 16.838,-5.99999 18,9.000004987 -18,8.999995013 z"
           fill="#ed7d31"
           transform="matrix(-1,0,0,1,572.838,354)"
           id="path2740" />
        <path
           d="m 737,264 h 60.342"
           stroke="#ed7d31"
           stroke-width="6"
           stroke-linecap="square"
           stroke-miterlimit="8"
           stroke-dasharray="18, 6"
           fill="none"
           fill-rule="evenodd"
           id="path2742"
           style="stroke-dasharray:12;stroke-dashoffset:0" />
        <text
           font-family="Calibri, Calibri_MSFontService, sans-serif"
           font-weight="400"
           font-size="24px"
           transform="translate(815.429,273)"
           id="text2744">Přenos videa</text>
        <text
           font-family="Calibri, Calibri_MSFontService, sans-serif"
           font-weight="400"
           font-size="24px"
           transform="translate(945.949,273)"
           id="text2746">–</text>
        <text
           font-family="Calibri, Calibri_MSFontService, sans-serif"
           font-weight="400"
           font-size="24px"
           transform="translate(963.449,273)"
           id="text2748">DJI protokol 5 GHz</text>
      </g>
    </g>
  </g>
</svg>
