<?xml version="1.0" encoding="UTF-8" standalone="no"?>
<!-- Uploaded to: SVG Repo, www.svgrepo.com, Generator: SVG Repo Mixer Tools -->

<svg
   width="800px"
   height="800px"
   viewBox="0 0 24 24"
   fill="none"
   version="1.1"
   id="svg4"
   sodipodi:docname="warnig-svgrepo-com.svg"
   inkscape:version="1.2.2 (732a01da63, 2022-12-09)"
   xmlns:inkscape="http://www.inkscape.org/namespaces/inkscape"
   xmlns:sodipodi="http://sodipodi.sourceforge.net/DTD/sodipodi-0.dtd"
   xmlns="http://www.w3.org/2000/svg"
   xmlns:svg="http://www.w3.org/2000/svg">
  <defs
     id="defs8" />
  <sodipodi:namedview
     id="namedview6"
     pagecolor="#ffffff"
     bordercolor="#000000"
     borderopacity="0.25"
     inkscape:showpageshadow="2"
     inkscape:pageopacity="0.0"
     inkscape:pagecheckerboard="0"
     inkscape:deskcolor="#d1d1d1"
     showgrid="false"
     inkscape:zoom="1.2525"
     inkscape:cx="401.1976"
     inkscape:cy="400"
     inkscape:window-width="2560"
     inkscape:window-height="1369"
     inkscape:window-x="1912"
     inkscape:window-y="-8"
     inkscape:window-maximized="1"
     inkscape:current-layer="svg4" />
  <path
     d="M 23.101468,16.499409 15.796351,3.3501975 C 14.814725,1.5809894 13.45643,0.61077844 11.961163,0.61077844 c -1.495265,0 -2.8535946,0.97021096 -3.8352198,2.73941906 L 0.82082563,16.499409 c -0.92455395,1.677894 -1.02728217,3.287302 -0.28535616,4.554284 0.74192603,1.266981 2.20294953,1.96325 4.12054293,1.96325 H 19.266281 c 1.917594,0 3.378617,-0.696269 4.120543,-1.96325 0.741927,-1.266982 0.639198,-2.887804 -0.285356,-4.554284 z M 11.105095,8.6007508 c 0,-0.4679841 0.388085,-0.8560685 0.856068,-0.8560685 0.467985,0 0.85607,0.3880844 0.85607,0.8560685 v 5.7071222 c 0,0.467985 -0.388085,0.856069 -0.85607,0.856069 -0.467983,0 -0.856068,-0.388084 -0.856068,-0.856069 z m 1.666481,9.9418082 c -0.05707,0.04566 -0.114143,0.09131 -0.171215,0.136971 -0.06849,0.04566 -0.136971,0.0799 -0.205456,0.102723 -0.06849,0.03424 -0.136971,0.05707 -0.21687,0.06849 -0.06849,0.01141 -0.148386,0.02283 -0.216872,0.02283 -0.06849,0 -0.148384,-0.01141 -0.228284,-0.02283 -0.06849,-0.01141 -0.136971,-0.03424 -0.205457,-0.06849 -0.06849,-0.02283 -0.136971,-0.05707 -0.205456,-0.102723 -0.05707,-0.04566 -0.114143,-0.09131 -0.171214,-0.136971 -0.205456,-0.21687 -0.331013,-0.513641 -0.331013,-0.810411 0,-0.296771 0.125557,-0.593541 0.331013,-0.810412 0.05707,-0.04566 0.114143,-0.09131 0.171214,-0.136971 0.06849,-0.04566 0.136971,-0.0799 0.205456,-0.102723 0.06849,-0.03424 0.136971,-0.05707 0.205457,-0.06849 0.148385,-0.03424 0.308185,-0.03424 0.445156,0 0.0799,0.01141 0.148384,0.03424 0.21687,0.06849 0.06849,0.02282 0.136971,0.05707 0.205456,0.102723 0.05707,0.04566 0.114143,0.09131 0.171215,0.136971 0.205456,0.216871 0.331012,0.513641 0.331012,0.810412 0,0.29677 -0.125556,0.593541 -0.331012,0.810411 z"
     fill="#292D32"
     id="path2"
     style="fill:#ffc000;fill-opacity:1;stroke-width:1.14142" />
</svg>
