<?xml version="1.0" encoding="UTF-8" standalone="no"?>
<!-- Created with Inkscape (http://www.inkscape.org/) -->

<svg
   width="512"
   height="512"
   viewBox="0 0 512 512"
   version="1.1"
   id="svg1"
   xml:space="preserve"
   inkscape:version="1.3.1 (91b66b0783, 2023-11-16)"
   sodipodi:docname="mainIcon.svg"
   inkscape:export-filename="mainIcon.pdf"
   inkscape:export-xdpi="96"
   inkscape:export-ydpi="96"
   xmlns:inkscape="http://www.inkscape.org/namespaces/inkscape"
   xmlns:sodipodi="http://sodipodi.sourceforge.net/DTD/sodipodi-0.dtd"
   xmlns="http://www.w3.org/2000/svg"
   xmlns:svg="http://www.w3.org/2000/svg"><sodipodi:namedview
     id="namedview1"
     pagecolor="#363ea2"
     bordercolor="#000000"
     borderopacity="0.25"
     inkscape:showpageshadow="2"
     inkscape:pageopacity="0.0"
     inkscape:pagecheckerboard="0"
     inkscape:deskcolor="#d1d1d1"
     inkscape:document-units="px"
     inkscape:zoom="0.43505859"
     inkscape:cx="353.97531"
     inkscape:cy="497.63412"
     inkscape:window-width="1920"
     inkscape:window-height="1129"
     inkscape:window-x="490"
     inkscape:window-y="-8"
     inkscape:window-maximized="1"
     inkscape:current-layer="layer1" /><defs
     id="defs1"><style
       id="style1-0">
      .cls-1 {
        fill: none;
      }
    </style><pattern
       id="EMFhbasepattern"
       patternUnits="userSpaceOnUse"
       width="6"
       height="6"
       x="0"
       y="0" /></defs><g
     inkscape:label="Vrstva 1"
     inkscape:groupmode="layer"
     id="layer1"><g
       style="fill:#ffffff;stroke:none;stroke-opacity:1;fill-opacity:1"
       id="g1"
       transform="scale(16)"><path
         d="M 7,12 A 5,5 0 1 1 12,7 H 10 A 3,3 0 1 0 7,10 Z"
         id="path1"
         style="stroke:none;stroke-opacity:1;fill:#ffffff;fill-opacity:1" /><path
         d="M 25,12 V 10 A 3,3 0 1 0 22,7 h -2 a 5,5 0 1 1 5,5 z"
         id="path2"
         style="stroke:none;stroke-opacity:1;fill:#ffffff;fill-opacity:1" /><path
         d="M 7,30 A 5,5 0 0 1 7,20 v 2 a 3,3 0 1 0 3,3 h 2 a 5.0055,5.0055 0 0 1 -5,5 z"
         id="path3"
         style="stroke:none;stroke-opacity:1;fill:#ffffff;fill-opacity:1" /><path
         d="m 25,30 a 5.0055,5.0055 0 0 1 -5,-5 h 2 a 3,3 0 1 0 3,-3 v -2 a 5,5 0 0 1 0,10 z"
         id="path4"
         style="stroke:none;stroke-opacity:1;fill:#ffffff;fill-opacity:1" /><path
         d="M 20,18.5859 V 13.4141 L 25.707,7.707 C 26.682864,6.7644787 25.235521,5.3171356 24.293,6.293 l -4.4995,4.5 c -1.158554,-3.7233625 -6.428446,-3.7233625 -7.587,0 L 7.707,6.293 C 7.3166375,5.9022865 6.6833625,5.9022865 6.293,6.293 v 0 c -0.3907135,0.3903625 -0.3907135,1.0236375 0,1.414 L 12,13.4141 v 5.1718 L 6.293,24.293 c -0.3907135,0.390362 -0.3907135,1.023638 0,1.414 v 0 c 0.3903625,0.390713 1.0236375,0.390713 1.414,0 l 4.5,-4.5 c 1.158554,3.723363 6.428446,3.723363 7.587,0 l 4.4995,4.5 c 0.942526,0.910322 2.324322,-0.471474 1.414,-1.414 z M 18,20 c 0,2.666666 -4,2.666666 -4,0 v -8 c 0,-2.6666655 4,-2.6666655 4,0 z"
         id="path5"
         style="fill:#ffffff;fill-opacity:1;stroke:none;stroke-opacity:1"
         sodipodi:nodetypes="cccccccssccccssccccccsssss" /></g><g
       style="fill:#ffffff;fill-opacity:1;stroke:#000000;stroke-opacity:1"
       id="g2"
       transform="matrix(9.7933782,0,0,8.6048286,284.00608,315.54696)"><path
         d="M 2,15 V 9 C 2,5.68629 4.68629,3 8,3 h 8 c 3.3137,0 6,2.68629 6,6 v 6 c 0,3.3137 -2.6863,6 -6,6 H 8 C 4.68629,21 2,18.3137 2,15 Z"
         stroke="#000000"
         stroke-width="1.5"
         id="path1-0"
         style="fill:#ffffff;fill-opacity:1;stroke:none;stroke-opacity:1" /><path
         d="m 13,15.5 v -2.8 m 2.8571,0 C 16.5714,12.7 18,12.7 18,10.6 18,8.5 16.5714,8.5 15.8571,8.5 H 13 v 4.2 m 2.8571,0 c -1.1428,0 -2.3809,0 -2.8571,0 m 2.8571,0 L 18,15.5"
         stroke="#000000"
         stroke-width="1.5"
         stroke-linecap="round"
         stroke-linejoin="round"
         id="path2-1"
         style="fill:#ffffff;fill-opacity:1;stroke:#000000;stroke-opacity:1" /><path
         d="M 11,15.5 9.92857,13 M 5,15.5 6.07143,13 m 0,0 L 8,8.5 9.92857,13 m -3.85714,0 h 3.85714"
         stroke="#000000"
         stroke-width="1.5"
         stroke-linecap="round"
         stroke-linejoin="round"
         id="path3-2"
         style="fill:#ffffff;fill-opacity:1;stroke:#000000;stroke-opacity:1" /></g></g><style
     type="text/css"
     id="style1">
	.st0{fill:#000000;}
</style></svg>
