<?xml version="1.0" encoding="UTF-8" standalone="no"?>
<!-- Uploaded to: SVG Repo, www.svgrepo.com, Generator: SVG Repo Mixer Tools -->

<svg
   width="800px"
   height="800px"
   viewBox="-11.33 0 74.134 74.134"
   version="1.1"
   id="svg4"
   sodipodi:docname="waypoint-svgrepo-com.svg"
   inkscape:version="1.2.2 (732a01da63, 2022-12-09)"
   xmlns:inkscape="http://www.inkscape.org/namespaces/inkscape"
   xmlns:sodipodi="http://sodipodi.sourceforge.net/DTD/sodipodi-0.dtd"
   xmlns="http://www.w3.org/2000/svg"
   xmlns:svg="http://www.w3.org/2000/svg">
  <defs
     id="defs8" />
  <sodipodi:namedview
     id="namedview6"
     pagecolor="#ffffff"
     bordercolor="#000000"
     borderopacity="0.25"
     inkscape:showpageshadow="2"
     inkscape:pageopacity="0.0"
     inkscape:pagecheckerboard="0"
     inkscape:deskcolor="#d1d1d1"
     showgrid="false"
     inkscape:zoom="0.44282562"
     inkscape:cx="-126.46061"
     inkscape:cy="401.96409"
     inkscape:window-width="2560"
     inkscape:window-height="1369"
     inkscape:window-x="1912"
     inkscape:window-y="-8"
     inkscape:window-maximized="1"
     inkscape:current-layer="Group_43" />
  <g
     id="Group_43"
     data-name="Group 43"
     transform="translate(-91.701 -736.446)">
    <path
       id="Path_23"
       data-name="Path 23"
       d="m 117.439,810.58 c -0.48116,-1.5e-4 -0.93304,-0.23111 -1.215,-0.621 -1,-1.384 -24.523,-34.061 -24.523,-47.775 0,-14.21471 11.5233,-25.73799 25.738,-25.73799 14.2147,0 25.738,11.52328 25.738,25.73799 0,13.714 -23.521,46.391 -24.523,47.775 -0.28196,0.38989 -0.73384,0.62085 -1.215,0.621 z m 0.5179,-52.71148 c -3.37803,-0.13419 -6.59571,4.48878 -6.46207,6.831 2.44154,4.70221 3.13778,4.33624 6.3131,6.04923 4.50707,-2.60083 5.57324,-4.45444 6.90499,-6.56713 -0.67965,-3.67342 -4.1184,-6.1508 -6.75602,-6.3131 z M 117.621,771.201 c -6.78609,8.9e-4 -10.18396,-8.20315 -5.38605,-13.00105 4.7979,-4.79791 13.00194,-1.40004 13.00105,5.38605 -0.006,4.2032 -3.4118,7.60904 -7.615,7.614 z m 0,-12.231 c -4.11294,-8.9e-4 -6.17282,4.97123 -3.26519,7.87949 2.90762,2.90825 7.88019,0.84945 7.88019,-3.26349 -0.003,-2.54781 -2.06719,-4.61269 -4.615,-4.616 z"
       fill="#0c2c67"
       style="stroke:none;stroke-width:1.01851;stroke-dasharray:none;stroke-opacity:1;fill:#ff9900;fill-opacity:1"
       sodipodi:nodetypes="ccsssccccccccsccccscc" />
  </g>
</svg>
